<svg width="44" height="41" viewBox="0 0 44 41" fill="none" xmlns="http://www.w3.org/2000/svg">
<path d="M22.771 0.370117C33.817 0.370117 42.7681 9.27105 42.7681 20.2461C42.7678 31.2209 33.8168 40.1211 22.771 40.1211C11.7253 40.1209 2.77517 31.2208 2.7749 20.2461C2.7749 9.27118 11.7252 0.370322 22.771 0.370117Z" stroke="white" stroke-width="0.739548"/>
<path fill-rule="evenodd" clip-rule="evenodd" d="M20.3659 0C31.6137 0 40.7318 9.06396 40.7318 20.2449C40.7318 31.4259 31.6137 40.4899 20.3659 40.4899C9.11813 40.4899 0 31.4259 0 20.2449C0 9.06396 9.11813 0 20.3659 0ZM13.8854 12.7254H13.7206V14.2108H13.8854C14.2264 14.2108 14.532 14.5039 14.532 14.841L14.532 26.3706C14.532 26.7305 14.2264 27.0008 13.8854 27.0008H13.7206L13.7206 28.4875H13.8854C15.09 28.4875 16.0548 27.5415 16.0548 26.3706V14.841C16.0548 13.6715 15.09 12.7254 13.8854 12.7254ZM12.5413 12.7254H12.3638C11.1834 12.7254 10.183 13.6715 10.183 14.841L10.183 26.3706C10.183 27.5415 11.1834 28.4875 12.3638 28.4875H12.5413L12.5413 27.0008H12.3638C12.0075 27.0008 11.7172 26.7305 11.7172 26.3706L11.7172 14.841C11.7172 14.5039 12.0075 14.2108 12.3638 14.2108H12.5413V12.7254ZM21.7086 21.8222H20.1363L21.9369 28.4875H23.5078L21.7086 21.8222ZM23.5345 12.7254H21.9622L19.8828 19.2998H17.7907V28.4875H19.3122V20.674H21.417L21.1508 19.7495L23.5345 12.7254ZM27.427 19.7495V22.0685L27.5158 22.1821C27.8949 22.6091 28.0103 23.1282 28.0103 23.6903V26.3706C28.0103 26.7305 27.7047 27.0008 27.3624 27.0008H26.2986C25.9562 27.0008 25.6519 26.7305 25.6519 26.3706V23.9606H24.1304V26.3706C24.1304 27.5415 25.094 28.4875 26.2986 28.4875H27.3624C28.5429 28.4875 29.5306 27.5415 29.5306 26.3706V23.6903C29.5306 22.8125 29.315 21.9801 28.7457 21.3056L27.427 19.7495ZM27.3624 12.7254H26.2986C25.1181 12.7254 24.1304 13.6929 24.1304 14.841V16.6662C24.1304 17.5428 24.3333 18.3778 24.8911 19.051L26.2479 20.674V18.3082L26.1337 18.1743C25.7661 17.7234 25.6519 17.2283 25.6519 16.6662V14.841C25.6519 14.5039 25.9562 14.2108 26.2986 14.2108H27.3624C27.7047 14.2108 28.0103 14.5039 28.0103 14.841V16.598H29.5306V14.841C29.5306 13.6715 28.5429 12.7254 27.3624 12.7254ZM19.3122 12.7254H17.7907V18.1503H19.3122V12.7254Z" fill="url(#paint0_linear_5409_721)"/>
<defs>
<linearGradient id="paint0_linear_5409_721" x1="20.3659" y1="0" x2="20.3659" y2="40.4899" gradientUnits="userSpaceOnUse">
<stop stop-color="white"/>
<stop offset="1" stop-color="#C6C6C6"/>
</linearGradient>
</defs>
</svg>
