<svg width="24" height="24" viewBox="0 0 24 24" fill="none" xmlns="http://www.w3.org/2000/svg">
<path opacity="0.5" fill-rule="evenodd" clip-rule="evenodd" d="M20.8284 4.1716C22 5.34318 22 7.2288 22 11V13C22 16.7713 22 18.6569 20.8284 19.8285C19.6569 21 17.7712 21 14 21H10C9.91573 21 9.0824 21.0001 9 21.0001L9 3.00006C9.0824 3.00005 9.91573 3.00003 10 3.00003H14C17.7712 3.00003 19.6569 3.00003 20.8284 4.1716Z" fill="#A1A1AA"/>
<path d="M2 13V11C2 7.22876 2 5.34315 3.17157 4.17157C4.1459 3.19724 6.36409 3.03321 9 3.00559V20.9944C6.36409 20.9668 4.1459 20.8028 3.17157 19.8284C2 18.6569 2 16.7712 2 13Z" fill="#A1A1AA"/>
</svg>
